<svg xmlns="http://www.w3.org/2000/svg" height="864" width="1536"><defs><clipPath id="a" clipPathUnits="userSpaceOnUse"><path d="M627.398 1205h10780v5007h-10780z"/></clipPath></defs><path d="M0 864h1536V0H0z" fill="#fff"/><path d="M83.647 703.395h1437.947V35.733H83.647z" fill="#fff"/><path d="M119.596 703.395v4.666"/><path d="M119.596 703.395v4.666" fill="none" stroke="#000" stroke-width="1.06664" stroke-linejoin="round" stroke-miterlimit="10"/><text style="-inkscape-font-specification:Arial" transform="matrix(.9428 -.9428 .9428 .9428 27.245 810.015)" font-weight="400" font-size="10" font-family="Arial"><tspan y="0" x="0 3.9015172 6.6796751 10.600527 16.752911 20.864351 26.992153 30.913006 33.691437 39.609318 45.7617 50.761703 57.109364 61.220806 66.22081 72.583115 78.945419 82.124084 85.30275 91.665054">(iterative_br_50, 0)</tspan></text><path d="M191.493 703.395v4.666"/><path d="M191.493 703.395v4.666" fill="none" stroke="#000" stroke-width="1.06664" stroke-linejoin="round" stroke-miterlimit="10"/><text style="-inkscape-font-specification:Arial" transform="matrix(.9428 -.9428 .9428 .9428 99.143 810.015)" font-weight="400" font-size="10" font-family="Arial"><tspan y="0" x="0 3.901242 6.6793981 10.600528 16.752913 20.864079 26.992155 30.912735 33.691441 39.609043 45.761429 50.761429 57.109371 61.220535 66.220535 72.58284 78.945145 82.12381 85.302475 91.664772">(iterative_br_50, 1)</tspan></text><path d="M263.39 703.395v4.666"/><path d="M263.39 703.395v4.666" fill="none" stroke="#000" stroke-width="1.06664" stroke-linejoin="round" stroke-miterlimit="10"/><text style="-inkscape-font-specification:Arial" transform="matrix(.9428 -.9428 .9428 .9428 186.096 795.225)" font-weight="400" font-size="10" font-family="Arial"><tspan y="0" x="0 3.9012442 6.6796741 10.600526 16.752911 20.864073 26.992146 30.912996 33.691425 39.609306 45.761688 50.971691 56.889568 63.237511 66.416176 69.594849 75.957146">(iterativesvd, 0)</tspan></text><path d="M335.29 703.395v4.666"/><path d="M335.29 703.395v4.666" fill="none" stroke="#000" stroke-width="1.06664" stroke-linejoin="round" stroke-miterlimit="10"/><text style="-inkscape-font-specification:Arial" transform="scale(1.33333) rotate(-45 816.688 64.64)" font-weight="400" font-size="10" font-family="Arial"><tspan y="0" x="0 3.9012442 6.6799502 10.600526 16.752911 20.864357 26.992153 30.91329 33.691452 39.609596 45.761982 50.971985 56.889854 63.237511 66.416168 69.594833 75.957138">(iterativesvd, 1)</tspan></text><path d="M407.187 703.395v4.666"/><path d="M407.187 703.395v4.666" fill="none" stroke="#000" stroke-width="1.06664" stroke-linejoin="round" stroke-miterlimit="10"/><text style="-inkscape-font-specification:Arial" transform="matrix(.9428 -.9428 .9428 .9428 357.453 767.397)" font-weight="400" font-size="10" font-family="Arial"><tspan y="0" x="0 3.9012442 9.6923466 16.030069 22.368069 27.368071 33.730381 36.909039 40.0877 46.450005">(knn_3, 0)</tspan></text><path d="M479.084 703.395v4.666"/><path d="M479.084 703.395v4.666" fill="none" stroke="#000" stroke-width="1.06664" stroke-linejoin="round" stroke-miterlimit="10"/><text style="-inkscape-font-specification:Arial" transform="matrix(.9428 -.9428 .9428 .9428 429.35 767.397)" font-weight="400" font-size="10" font-family="Arial"><tspan y="0" x="0 3.9012442 9.6923466 16.030346 22.368345 27.368347 33.730659 36.909317 40.087975 46.450283">(knn_3, 1)</tspan></text><path d="M550.981 703.395v4.666"/><path d="M550.981 703.395v4.666" fill="none" stroke="#000" stroke-width="1.06664" stroke-linejoin="round" stroke-miterlimit="10"/><text style="-inkscape-font-specification:Arial" transform="matrix(.9428 -.9428 .9428 .9428 439.863 829.048)" font-weight="400" font-size="10" font-family="Arial"><tspan y="0" x="0 3.9015183 13.642738 19.770535 23.691393 27.802837 30.581278 36.499149 40.01915 46.147221 51.645256 55.566116 61.68425 65.795692 68.574135 73.823029 79.950821 83.871956 86.650124 92.768257 99.106255 102.28491 105.46357 111.82588">(matrixfactorization, 0)</tspan></text><path d="M622.88 703.395v4.666"/><path d="M622.88 703.395v4.666" fill="none" stroke="#000" stroke-width="1.06664" stroke-linejoin="round" stroke-miterlimit="10"/><text style="-inkscape-font-specification:Arial" transform="matrix(.9428 -.9428 .9428 .9428 511.76 829.048)" font-weight="400" font-size="10" font-family="Arial"><tspan y="0" x="0 3.9017944 13.642738 19.770811 23.691393 27.803114 30.581278 36.499424 40.019424 46.147221 51.645515 55.566082 61.684216 65.795937 68.574081 73.82325 79.95105 83.871887 86.650032 92.768166 99.106171 102.28484 105.46352 111.82581">(matrixfactorization, 1)</tspan></text><path d="M694.777 703.395v4.666"/><path d="M694.777 703.395v4.666" fill="none" stroke="#000" stroke-width="1.06664" stroke-linejoin="round" stroke-miterlimit="10"/><text style="-inkscape-font-specification:Arial" transform="matrix(.9428 -.9428 .9428 .9428 633.672 778.77)" font-weight="400" font-size="10" font-family="Arial"><tspan y="0" x="0 3.9012442 13.642482 16.420902 21.918919 28.071285 33.071289 39.433582 45.795876 48.974827 52.153503 58.515793">(mice_15, 0)</tspan></text><path d="M766.675 703.395v4.666"/><path d="M766.675 703.395v4.666" fill="none" stroke="#000" stroke-width="1.06664" stroke-linejoin="round" stroke-miterlimit="10"/><text style="-inkscape-font-specification:Arial" transform="matrix(.9428 -.9428 .9428 .9428 705.57 778.77)" font-weight="400" font-size="10" font-family="Arial"><tspan y="0" x="0 3.9012442 13.642205 16.420902 21.918642 28.071011 33.071011 39.433304 45.795597 48.974274 52.15295 58.51524">(mice_15, 1)</tspan></text><path d="M838.572 703.395v4.666"/><path d="M838.572 703.395v4.666" fill="none" stroke="#000" stroke-width="1.06664" stroke-linejoin="round" stroke-miterlimit="10"/><text style="-inkscape-font-specification:Arial" transform="matrix(.9428 -.9428 .9428 .9428 783.463 772.774)" font-weight="400" font-size="10" font-family="Arial"><tspan y="0" x="0 3.9015205 13.642482 16.420902 21.918919 28.071285 33.071289 39.433582 42.612259 45.790932 52.153221">(mice_3, 0)</tspan></text><path d="M910.47 703.395v4.666"/><path d="M910.47 703.395v4.666" fill="none" stroke="#000" stroke-width="1.06664" stroke-linejoin="round" stroke-miterlimit="10"/><text style="-inkscape-font-specification:Arial" transform="matrix(.9428 -.9428 .9428 .9428 855.36 772.774)" font-weight="400" font-size="10" font-family="Arial"><tspan y="0" x="0 3.9015205 13.642757 16.420902 21.919195 28.071562 33.071564 39.433857 42.612534 45.79121 52.1535">(mice_3, 1)</tspan></text><path d="M982.368 703.395v4.666"/><path d="M982.368 703.395v4.666" fill="none" stroke="#000" stroke-width="1.06664" stroke-linejoin="round" stroke-miterlimit="10"/><text style="-inkscape-font-specification:Arial" transform="matrix(.9428 -.9428 .9428 .9428 910.17 790.128)" font-weight="400" font-size="10" font-family="Arial"><tspan y="0" x="0 3.9015205 9.1115217 15.229655 18.625153 22.545996 25.324417 35.065655 41.413315 47.751038 51.672153 57.824245 61.003197 64.181877 70.544167">(softimpute, 0)</tspan></text><path d="M1054.265 703.395v4.666"/><path d="M1054.265 703.395v4.666" fill="none" stroke="#000" stroke-width="1.06664" stroke-linejoin="round" stroke-miterlimit="10"/><text style="-inkscape-font-specification:Arial" transform="matrix(.9428 -.9428 .9428 .9428 982.067 790.128)" font-weight="400" font-size="10" font-family="Arial"><tspan y="0" x="0 3.9017966 9.1117983 15.229931 18.625153 22.546272 25.324417 35.065929 41.413315 47.751312 51.672157 57.824245 61.003197 64.181877 70.544167">(softimpute, 1)</tspan></text><path d="M1126.163 703.395v4.666"/><path d="M1126.163 703.395v4.666" fill="none" stroke="#000" stroke-width="1.06664" stroke-linejoin="round" stroke-miterlimit="10"/><text style="-inkscape-font-specification:Arial" transform="matrix(.9428 -.9428 .9428 .9428 1030.424 813.403)" font-weight="400" font-size="10" font-family="Arial"><tspan y="0" x="0 3.9015183 10.239242 16.576965 19.355387 25.273256 30.273256 33.051678 42.792915 49.140575 54.140575 63.881813 70.03418 76.16198 82.499939 85.678581 88.857224 95.219551">(univ_imp_mean, 0)</tspan></text><path d="M1198.06 703.395v4.666"/><path d="M1198.06 703.395v4.666" fill="none" stroke="#000" stroke-width="1.06664" stroke-linejoin="round" stroke-miterlimit="10"/><text style="-inkscape-font-specification:Arial" transform="matrix(.9428 -.9428 .9428 .9428 1102.321 813.403)" font-weight="400" font-size="10" font-family="Arial"><tspan y="0" x="0 3.9015183 10.239207 16.577171 19.35535 25.273531 30.273533 33.051712 42.793228 49.14061 54.14061 63.882126 70.034492 76.16201 82.499977 85.678619 88.857262 95.219582">(univ_imp_mean, 1)</tspan></text><path d="M1269.959 703.395v4.666"/><path d="M1269.959 703.395v4.666" fill="none" stroke="#000" stroke-width="1.06664" stroke-linejoin="round" stroke-miterlimit="10"/><text style="-inkscape-font-specification:Arial" transform="matrix(.9428 -.9428 .9428 .9428 1165.616 822.006)" font-weight="400" font-size="10" font-family="Arial"><tspan y="0" x="0 3.9015183 10.239207 16.577171 19.355629 25.273535 30.273535 33.051716 42.793228 49.14061 54.140614 63.882126 70.034492 76.381874 79.160332 85.288124 91.626091 94.804733 97.983376 104.3457">(univ_imp_median, 0)</tspan></text><path d="M1341.853 703.395v4.666"/><path d="M1341.853 703.395v4.666" fill="none" stroke="#000" stroke-width="1.06664" stroke-linejoin="round" stroke-miterlimit="10"/><text style="-inkscape-font-specification:Arial" transform="matrix(.9428 -.9428 .9428 .9428 1237.513 822.006)" font-weight="400" font-size="10" font-family="Arial"><tspan y="0" x="0 3.901242 10.239207 16.577171 19.355354 25.273535 30.273535 33.051716 42.792953 49.14061 54.140614 63.881851 70.034218 76.381874 79.160057 85.288124 91.626091 94.804733 97.983376 104.3457">(univ_imp_median, 1)</tspan></text><path d="M1413.76 703.395v4.666"/><path d="M1413.76 703.395v4.666" fill="none" stroke="#000" stroke-width="1.06664" stroke-linejoin="round" stroke-miterlimit="10"/><text style="-inkscape-font-specification:Arial" transform="matrix(.9428 -.9428 .9428 .9428 1344.773 786.65)" font-weight="400" font-size="10" font-family="Arial"><tspan y="0" x="0 3.9012442 12.0799 14.85808 18.7792 25.116888 30.116888 36.454578 42.582649 48.920616 54.130615 57.309258 60.4879 66.850227">(with_nans, 0)</tspan></text><path d="M1485.653 703.395v4.666"/><path d="M1485.653 703.395v4.666" fill="none" stroke="#000" stroke-width="1.06664" stroke-linejoin="round" stroke-miterlimit="10"/><g font-weight="400" font-size="10" font-family="Arial"><text style="-inkscape-font-specification:Arial" transform="matrix(.9428 -.9428 .9428 .9428 1416.667 786.65)"><tspan y="0" x="0 3.9012442 12.0799 14.858356 18.7792 25.116888 30.116888 36.454853 42.582928 48.920616 54.130615 57.309536 60.488174 66.850502">(with_nans, 1)</tspan></text><text style="-inkscape-font-specification:Arial" transform="matrix(1.33333 0 0 1.33333 711.405 846.465)"><tspan y="0" x="0 3.9015625 11.601562 17.729708 21.650391 27.778536 32.988537 39.140881 43.061954 46.24049 49.419415 58.047169 64.175316 68.286629 73.70266 79.820602 85.738556 88.91748 95.255379 101.59328 105.11328 111.23162 114.00977 120.35742 126.50977 132.85742">[Dataset, Markov unfolded]</tspan></text></g><path d="M83.647 611.627h-4.666"/><path d="M83.647 611.627h-4.666" fill="none" stroke="#000" stroke-width="1.06664" stroke-linejoin="round" stroke-miterlimit="10"/><text style="-inkscape-font-specification:Arial" transform="matrix(1.33333 0 0 1.33333 65.835 616.688)" font-weight="400" font-size="10" font-family="Arial"><tspan y="0" x="0">6</tspan></text><path d="M83.647 509.537h-4.666"/><path d="M83.647 509.537h-4.666" fill="none" stroke="#000" stroke-width="1.06664" stroke-linejoin="round" stroke-miterlimit="10"/><text style="-inkscape-font-specification:Arial" transform="matrix(1.33333 0 0 1.33333 65.835 514.6)" font-weight="400" font-size="10" font-family="Arial"><tspan y="0" x="0">7</tspan></text><path d="M83.647 407.45h-4.666"/><path d="M83.647 407.45h-4.666" fill="none" stroke="#000" stroke-width="1.06664" stroke-linejoin="round" stroke-miterlimit="10"/><text style="-inkscape-font-specification:Arial" transform="matrix(1.33333 0 0 1.33333 65.835 412.512)" font-weight="400" font-size="10" font-family="Arial"><tspan y="0" x="0">8</tspan></text><path d="M83.647 305.361h-4.666"/><path d="M83.647 305.361h-4.666" fill="none" stroke="#000" stroke-width="1.06664" stroke-linejoin="round" stroke-miterlimit="10"/><text style="-inkscape-font-specification:Arial" transform="matrix(1.33333 0 0 1.33333 65.835 310.424)" font-weight="400" font-size="10" font-family="Arial"><tspan y="0" x="0">9</tspan></text><path d="M83.647 203.273h-4.666"/><path d="M83.647 203.273h-4.666" fill="none" stroke="#000" stroke-width="1.06664" stroke-linejoin="round" stroke-miterlimit="10"/><text style="-inkscape-font-specification:Arial" transform="matrix(1.33333 0 0 1.33333 57.356 208.336)" font-weight="400" font-size="10" font-family="Arial"><tspan y="0" x="0 6.3621087">10</tspan></text><path d="M83.647 101.185h-4.666"/><path d="M83.647 101.185h-4.666" fill="none" stroke="#000" stroke-width="1.06664" stroke-linejoin="round" stroke-miterlimit="10"/><g font-weight="400" font-size="10" font-family="Arial"><text style="-inkscape-font-specification:Arial" transform="matrix(1.33333 0 0 1.33333 57.356 106.248)"><tspan y="0" x="0 6.3621087">11</tspan></text><text style="-inkscape-font-specification:Arial" transform="matrix(0 -1.33333 1.33333 0 49.252 388.387)"><tspan y="0" x="0 6.9480467 15.576167 21.923822">RMSE</tspan></text></g><g clip-path="url(#a)" fill="none" stroke-width="10" stroke-linejoin="round" stroke-miterlimit="10" transform="matrix(.13333 0 0 -.13333 0 864)"><path d="M762.164 3114.97h269.616v602.01H762.164v-602.01M896.969 3114.97v-223.09M896.969 3716.98v338.43" stroke="gray" stroke-linecap="square"/><path d="M829.566 2891.88h134.809M829.566 4055.41h134.809M1301.39 2602.2h269.62v821.6h-269.62v-821.6M1436.2 2602.2v-791.68M1436.2 3423.8V3793M1368.8 1810.52h134.81M1368.8 3793h134.81" stroke="#000" stroke-linecap="square"/><path d="M1840.63 3320.65h269.61v295.72h-269.61v-295.72M1975.43 3320.65v-419.29M1975.43 3616.37v131.26" stroke="gray" stroke-linecap="square"/><path d="M1908.03 2901.36h134.81M1908.03 3747.63h134.81M2379.86 2582h269.62v783.38h-269.62V2582M2514.67 2582v-706.32M2514.67 3365.38v253.36M2447.26 1875.68h134.81M2447.26 3618.74h134.81" stroke="#000" stroke-linecap="square"/><path d="M2919.09 3434.48h269.62v606.66h-269.62v-606.66M3053.9 3434.48v-717.39M3053.9 4041.14v213.65" stroke="gray" stroke-linecap="square"/><path d="M2986.5 2717.09h134.8M2986.5 4254.79h134.8M3458.32 2775.34h269.62v408.39h-269.62v-408.39M3593.13 2775.34v-506.42M3593.13 3183.73v237.86M3525.73 2268.92h134.81M3525.73 3421.59h134.81" stroke="#000" stroke-linecap="square"/><path d="M3997.55 2668.95h269.62v1017h-269.62v-1017M4132.36 2668.95v-859.74M4132.36 3685.95v259.72" stroke="gray" stroke-linecap="square"/><path d="M4064.96 1809.21h134.81M4064.96 3945.67h134.81M4536.79 2177.26h269.62v780.98h-269.62v-780.98M4671.6 2177.26v-293.32M4671.6 2958.24v491.13M4604.19 1883.94H4739M4604.19 3449.37H4739" stroke="#000" stroke-linecap="square"/><path d="M5076.02 2848.56h269.62v641.51h-269.62v-641.51M5210.83 2848.56v-472.52M5210.83 3490.07v794.91" stroke="gray" stroke-linecap="square"/><path d="M5143.43 2376.04h134.8M5143.43 4284.98h134.8M5615.25 2119.31h269.62v1311.46h-269.62V2119.31M5750.06 2119.31v-687.16M5750.06 3430.77v266.33M5682.66 1432.15h134.8M5682.66 3697.1h134.8" stroke="#000" stroke-linecap="square"/><path d="M6154.48 3173.74h269.62v499.74h-269.62v-499.74M6289.29 3173.74V2947.1M6289.29 3673.48v376.73" stroke="gray" stroke-linecap="square"/><path d="M6221.89 2947.1h134.81M6221.89 4050.21h134.81M6693.72 2744.15h269.62v530.4h-269.62v-530.4M6828.53 2744.15v-323.94M6828.53 3274.55v317.5M6761.12 2420.21h134.81M6761.12 3592.05h134.81" stroke="#000" stroke-linecap="square"/><path d="M7232.95 3194.08h269.62v464.86h-269.62v-464.86M7367.76 3194.08V2679.2M7367.76 3658.94v270.83" stroke="gray" stroke-linecap="square"/><path d="M7300.36 2679.2h134.8M7300.36 3929.77h134.8M7772.18 2882.86h269.62v720.76h-269.62v-720.76M7906.99 2882.86v-457.82M7906.99 3603.62v461.74M7839.59 2425.04h134.8M7839.59 4065.36h134.8" stroke="#000" stroke-linecap="square"/><path d="M8311.41 2703.71h269.62v576.08h-269.62v-576.08M8446.22 2703.71v-607.32M8446.22 3279.79v812.87" stroke="gray" stroke-linecap="square"/><path d="M8378.82 2096.39h134.81M8378.82 4092.66h134.81M8850.65 2472.59h269.61V3484.7h-269.61V2472.59M8985.46 2472.59v-603.37M8985.46 3484.7v232.41M8918.05 1869.22h134.81M8918.05 3717.11h134.81" stroke="#000" stroke-linecap="square"/><path d="M9389.88 3058.58h269.62v540.21h-269.62v-540.21M9524.69 3058.58v-454.2M9524.69 3598.79v586.07" stroke="gray" stroke-linecap="square"/><path d="M9457.29 2604.38h134.8M9457.29 4184.86h134.8M9929.11 2240.18h269.59v828.46h-269.59v-828.46M10063.9 2240.18v-718.52M10063.9 3068.64v278.55M9996.52 1521.66h134.78M9996.52 3347.19h134.78" stroke="#000" stroke-linecap="square"/><path d="M10468.3 4050.51h269.7v614.99h-269.7v-614.99M10603.2 4050.51v-667.22M10603.2 4665.5v904.06" stroke="gray" stroke-linecap="square"/><path d="M10535.7 3383.29h134.9M10535.7 5569.56h134.9" stroke="#000" stroke-linecap="square"/><path d="M10603.2 5569.03c8 0 15.6 3.16 21.2 8.79 5.6 5.62 8.8 13.25 8.8 21.21 0 7.96-3.2 15.59-8.8 21.21-5.6 5.63-13.2 8.79-21.2 8.79s-15.6-3.16-21.2-8.79c-5.6-5.62-8.8-13.25-8.8-21.21 0-7.96 3.2-15.59 8.8-21.21 5.6-5.63 13.2-8.79 21.2-8.79z" stroke="#000"/><path d="M10603.2 5561.4c8 0 15.6 3.16 21.2 8.79 5.6 5.62 8.8 13.26 8.8 21.21 0 7.96-3.2 15.59-8.8 21.21-5.6 5.63-13.2 8.79-21.2 8.79s-15.6-3.16-21.2-8.79c-5.6-5.62-8.8-13.25-8.8-21.21 0-7.95 3.2-15.59 8.8-21.21 5.6-5.63 13.2-8.79 21.2-8.79z" stroke="#000"/><path d="M11007.6 4308.02h269.6v777.31h-269.6v-777.31M11142.4 4308.02v-909.16M11142.4 5085.33v899.06M11075 3398.86h134.8M11075 5984.39h134.8" stroke="#000" stroke-linecap="square"/><path d="M762.164 3361.14h269.616" stroke="gray" stroke-linecap="square"/><path d="M1301.39 3070.66h269.62" stroke="#000" stroke-linecap="square"/><path d="M1840.63 3475.49h269.61" stroke="gray" stroke-linecap="square"/><path d="M2379.86 3144.07h269.62" stroke="#000" stroke-linecap="square"/><path d="M2919.09 3793.25h269.62" stroke="gray" stroke-linecap="square"/><path d="M3458.32 3090.39h269.62" stroke="#000" stroke-linecap="square"/><path d="M3997.55 3464.31h269.62" stroke="gray" stroke-linecap="square"/><path d="M4536.79 2468.48h269.62" stroke="#000" stroke-linecap="square"/><path d="M5076.02 3289.02h269.62" stroke="gray" stroke-linecap="square"/><path d="M5615.25 3097.6h269.62" stroke="#000" stroke-linecap="square"/><path d="M6154.48 3433.01h269.62" stroke="gray" stroke-linecap="square"/><path d="M6693.72 3099.29h269.62" stroke="#000" stroke-linecap="square"/><path d="M7232.95 3352.62h269.62" stroke="gray" stroke-linecap="square"/><path d="M7772.18 3359.06h269.62" stroke="#000" stroke-linecap="square"/><path d="M8311.41 2956.14h269.62" stroke="gray" stroke-linecap="square"/><path d="M8850.65 2951.47h269.61" stroke="#000" stroke-linecap="square"/><path d="M9389.88 3479.29h269.62" stroke="gray" stroke-linecap="square"/><path d="M9929.11 2461.1h269.59" stroke="#000" stroke-linecap="square"/><path d="M10468.3 4486.2h269.7" stroke="gray" stroke-linecap="square"/><path d="M11007.6 4694.81h269.6" stroke="#000" stroke-linecap="square"/></g><path d="M83.647 703.395V35.733M1521.6 703.395V35.733M83.647 703.395H1521.6M83.647 35.733H1521.6" fill="none" stroke="#000" stroke-width="1.06664" stroke-linecap="square" stroke-miterlimit="10"/><text style="-inkscape-font-specification:Arial" transform="matrix(1.33333 0 0 1.33333 520.31 27.733)" font-weight="400" font-size="12" font-family="Arial"><tspan y="0" x="0 6.6855383 14.039048 20.291048 26.543047 33.88485 37.699287 45.316456 52.699287 57.6329 61.857487 69.199287 73.882896 85.572365 92.925873 100.53133 107.12899 114.51183 118.32626 125.94343 133.32626 138.03134 147.84578 155.22861 162.61143 170.2169 174.03134 181.66612 189.3009 193.11534 200.46884 208.07431 215.69148 219.50592 227.1407 234.77548 242.41026 246.2247 253.84187 261.2247 267.47672 272.18176 275.99622 280.22079 287.60364 294.95715 299.6622 307.26767 311.95129 319.33411 325.58612 329.40054 336.75406 343.35172 348.03534 355.37701 361.629 367.88101 371.69543 379.31259 386.66611 391.37119 398.7247 404.97668 412.35953 417.06461">Lasso performance between 20 and 150 best features across datasets</tspan></text></svg>