<svg xmlns="http://www.w3.org/2000/svg" height="864" width="1536"><defs><clipPath id="a" clipPathUnits="userSpaceOnUse"><path d="M532.301 1205h10880v5007h-10880z"/></clipPath></defs><path d="M0 864h1536V0H0z" fill="#fff"/><path d="M70.972 703.395h1450.626V35.733H70.972z" fill="#fff"/><path d="M103.94 703.395v4.666"/><path d="M103.94 703.395v4.666" fill="none" stroke="#000" stroke-width="1.06664" stroke-linejoin="round" stroke-miterlimit="10"/><text style="-inkscape-font-specification:Arial" transform="matrix(.9428 -.9428 .9428 .9428 26.645 795.225)" font-weight="400" font-size="10" font-family="Arial"><tspan y="0" x="0 3.901243 6.6796751 10.600529 16.752913 20.864077 26.992155 30.913008 33.691441 39.609318 45.761703 50.971703 56.889584 63.237522 66.416183 69.594849 75.957153">(iterativesvd, 0)</tspan></text><path d="M169.879 703.395v4.666"/><path d="M169.879 703.395v4.666" fill="none" stroke="#000" stroke-width="1.06664" stroke-linejoin="round" stroke-miterlimit="10"/><text style="-inkscape-font-specification:Arial" transform="matrix(.9428 -.9428 .9428 .9428 92.583 795.225)" font-weight="400" font-size="10" font-family="Arial"><tspan y="0" x="0 3.9012442 6.6799502 10.60053 16.752914 20.86408 26.992157 30.91329 33.691444 39.609596 45.761982 50.971985 56.889587 63.23753 66.416199 69.594864 75.957161">(iterativesvd, 1)</tspan></text><path d="M235.816 703.395v4.666"/><path d="M235.816 703.395v4.666" fill="none" stroke="#000" stroke-width="1.06664" stroke-linejoin="round" stroke-miterlimit="10"/><text style="-inkscape-font-specification:Arial" transform="matrix(.9428 -.9428 .9428 .9428 186.083 767.397)" font-weight="400" font-size="10" font-family="Arial"><tspan y="0" x="0 3.9012442 9.692338 16.030336 22.368338 27.368338 33.73064 36.909309 40.087975 46.450272">(knn_3, 0)</tspan></text><path d="M301.753 703.395v4.666"/><path d="M301.753 703.395v4.666" fill="none" stroke="#000" stroke-width="1.06664" stroke-linejoin="round" stroke-miterlimit="10"/><text style="-inkscape-font-specification:Arial" transform="matrix(.9428 -.9428 .9428 .9428 252.02 767.397)" font-weight="400" font-size="10" font-family="Arial"><tspan y="0" x="0 3.9015205 9.6926146 16.030336 22.368338 27.368338 33.730648 36.909309 40.087967 46.450272">(knn_3, 1)</tspan></text><path d="M367.692 703.395v4.666"/><path d="M367.692 703.395v4.666" fill="none" stroke="#000" stroke-width="1.06664" stroke-linejoin="round" stroke-miterlimit="10"/><text style="-inkscape-font-specification:Arial" transform="scale(1.33333) rotate(-45 846.776 78.61)" font-weight="400" font-size="10" font-family="Arial"><tspan y="0" x="0 3.9015183 13.642747 19.770819 23.691401 27.802847 30.581287 36.499157 40.019157 46.147232 51.645542 55.566124 61.684258 65.795708 68.574142 73.823311 79.950829 83.871971 86.650131 92.768265 99.106262 102.28492 105.46358 111.82589">(matrixfactorization, 0)</tspan></text><path d="M433.63 703.395v4.666"/><path d="M433.63 703.395v4.666" fill="none" stroke="#000" stroke-width="1.06664" stroke-linejoin="round" stroke-miterlimit="10"/><text style="-inkscape-font-specification:Arial" transform="matrix(.9428 -.9428 .9428 .9428 322.51 829.048)" font-weight="400" font-size="10" font-family="Arial"><tspan y="0" x="0 3.9017944 13.642738 19.770811 23.691393 27.803114 30.581278 36.499424 40.019424 46.147221 51.645531 55.566116 61.68425 65.795975 68.574135 73.823303 79.951103 83.871956 86.650124 92.768257 99.106255 102.28491 105.46357 111.82588">(matrixfactorization, 1)</tspan></text><path d="M499.567 703.395v4.666"/><path d="M499.567 703.395v4.666" fill="none" stroke="#000" stroke-width="1.06664" stroke-linejoin="round" stroke-miterlimit="10"/><text style="-inkscape-font-specification:Arial" transform="matrix(.9428 -.9428 .9428 .9428 438.461 778.77)" font-weight="400" font-size="10" font-family="Arial"><tspan y="0" x="0 3.9012442 13.642188 16.420902 21.918661 28.071045 33.071045 39.433357 45.79567 48.974327 52.152985 58.515293">(mice_15, 0)</tspan></text><path d="M565.504 703.395v4.666"/><path d="M565.504 703.395v4.666" fill="none" stroke="#000" stroke-width="1.06664" stroke-linejoin="round" stroke-miterlimit="10"/><text style="-inkscape-font-specification:Arial" transform="matrix(.9428 -.9428 .9428 .9428 504.399 778.77)" font-weight="400" font-size="10" font-family="Arial"><tspan y="0" x="0 3.9012442 13.642465 16.420902 21.918936 28.071045 33.071045 39.433357 45.79565 48.974602 52.153278 58.515568">(mice_15, 1)</tspan></text><path d="M631.441 703.395v4.666"/><path d="M631.441 703.395v4.666" fill="none" stroke="#000" stroke-width="1.06664" stroke-linejoin="round" stroke-miterlimit="10"/><text style="-inkscape-font-specification:Arial" transform="matrix(.9428 -.9428 .9428 .9428 576.332 772.774)" font-weight="400" font-size="10" font-family="Arial"><tspan y="0" x="0 3.9015205 13.642757 16.420902 21.919195 28.071562 33.071564 39.433857 42.612808 45.791485 52.153774">(mice_3, 0)</tspan></text><path d="M697.38 703.395v4.666"/><path d="M697.38 703.395v4.666" fill="none" stroke="#000" stroke-width="1.06664" stroke-linejoin="round" stroke-miterlimit="10"/><text style="-inkscape-font-specification:Arial" transform="matrix(.9428 -.9428 .9428 .9428 642.27 772.774)" font-weight="400" font-size="10" font-family="Arial"><tspan y="0" x="0 3.9017966 13.642757 16.420902 21.919195 28.071562 33.071564 39.433857 42.612534 45.79121 52.1535">(mice_3, 1)</tspan></text><path d="M763.317 703.395v4.666"/><path d="M763.317 703.395v4.666" fill="none" stroke="#000" stroke-width="1.06664" stroke-linejoin="round" stroke-miterlimit="10"/><text style="-inkscape-font-specification:Arial" transform="matrix(.9428 -.9428 .9428 .9428 672.07 808.91)" font-weight="400" font-size="10" font-family="Arial"><tspan y="0" x="0 3.901242 13.642756 19.980478 22.7589 26.679743 29.458164 34.458164 37.236309 46.977547 53.325207 58.325207 64.6875 71.049797 73.827942 77.749062 80.927734 84.106415 90.468704">(multi_imp_30it, 0)</tspan></text><path d="M829.255 703.395v4.666"/><path d="M829.255 703.395v4.666" fill="none" stroke="#000" stroke-width="1.06664" stroke-linejoin="round" stroke-miterlimit="10"/><text style="-inkscape-font-specification:Arial" transform="matrix(.9428 -.9428 .9428 .9428 738.008 808.91)" font-weight="400" font-size="10" font-family="Arial"><tspan y="0" x="0 3.9015183 13.642756 19.980478 22.7589 26.679743 29.458164 34.458164 37.236309 46.977547 53.325207 58.325207 64.6875 71.049797 73.828217 77.749062 80.927734 84.106415 90.468704">(multi_imp_30it, 1)</tspan></text><path d="M895.192 703.395v4.666"/><path d="M895.192 703.395v4.666" fill="none" stroke="#000" stroke-width="1.06664" stroke-linejoin="round" stroke-miterlimit="10"/><text style="-inkscape-font-specification:Arial" transform="matrix(.9428 -.9428 .9428 .9428 803.947 808.91)" font-weight="400" font-size="10" font-family="Arial"><tspan y="0" x="0 3.901242 13.642756 19.980202 22.7589 26.679466 29.458164 34.458164 37.236588 46.977547 53.325481 58.325485 64.687775 71.050072 73.828217 77.749336 80.928009 84.106689 90.468979">(multi_imp_50it, 0)</tspan></text><path d="M961.13 703.395v4.666"/><path d="M961.13 703.395v4.666" fill="none" stroke="#000" stroke-width="1.06664" stroke-linejoin="round" stroke-miterlimit="10"/><text style="-inkscape-font-specification:Arial" transform="matrix(.9428 -.9428 .9428 .9428 869.884 808.91)" font-weight="400" font-size="10" font-family="Arial"><tspan y="0" x="0 3.901242 13.642756 19.980478 22.7589 26.679466 29.458164 34.458164 37.236309 46.977272 53.325207 58.325207 64.6875 71.049797 73.827942 77.749062 80.927734 84.106415 90.468704">(multi_imp_50it, 1)</tspan></text><path d="M1027.068 703.395v4.666"/><path d="M1027.068 703.395v4.666" fill="none" stroke="#000" stroke-width="1.06664" stroke-linejoin="round" stroke-miterlimit="10"/><text style="-inkscape-font-specification:Arial" transform="matrix(.9428 -.9428 .9428 .9428 954.87 790.128)" font-weight="400" font-size="10" font-family="Arial"><tspan y="0" x="0 3.9015205 9.1115217 15.229655 18.625153 22.545996 25.324417 35.065655 41.413315 47.751038 51.672153 57.824245 61.003197 64.181877 70.544167">(softimpute, 0)</tspan></text><path d="M1093.005 703.395v4.666"/><path d="M1093.005 703.395v4.666" fill="none" stroke="#000" stroke-width="1.06664" stroke-linejoin="round" stroke-miterlimit="10"/><text style="-inkscape-font-specification:Arial" transform="matrix(.9428 -.9428 .9428 .9428 1020.807 790.128)" font-weight="400" font-size="10" font-family="Arial"><tspan y="0" x="0 3.9015205 9.1115217 15.229655 18.625153 22.546272 25.324417 35.065655 41.413315 47.751312 51.672153 57.824245 61.003197 64.181877 70.544167">(softimpute, 1)</tspan></text><path d="M1158.943 703.395v4.666"/><path d="M1158.943 703.395v4.666" fill="none" stroke="#000" stroke-width="1.06664" stroke-linejoin="round" stroke-miterlimit="10"/><text style="-inkscape-font-specification:Arial" transform="matrix(.9428 -.9428 .9428 .9428 1063.204 813.403)" font-weight="400" font-size="10" font-family="Arial"><tspan y="0" x="0 3.9015183 10.239242 16.57724 19.355387 25.273531 30.273533 33.051712 42.793228 49.14061 54.14061 63.882126 70.034492 76.16201 82.499977 85.678619 88.857262 95.219582">(univ_imp_mean, 0)</tspan></text><path d="M1224.88 703.395v4.666"/><path d="M1224.88 703.395v4.666" fill="none" stroke="#000" stroke-width="1.06664" stroke-linejoin="round" stroke-miterlimit="10"/><text style="-inkscape-font-specification:Arial" transform="matrix(.9428 -.9428 .9428 .9428 1129.141 813.403)" font-weight="400" font-size="10" font-family="Arial"><tspan y="0" x="0 3.9015183 10.239207 16.576895 19.35535 25.273256 30.273256 33.051712 42.79295 49.14061 54.14061 63.881847 70.034218 76.16201 82.499977 85.678619 88.857262 95.219582">(univ_imp_mean, 1)</tspan></text><path d="M1290.819 703.395v4.666"/><path d="M1290.819 703.395v4.666" fill="none" stroke="#000" stroke-width="1.06664" stroke-linejoin="round" stroke-miterlimit="10"/><text style="-inkscape-font-specification:Arial" transform="matrix(.9428 -.9428 .9428 .9428 1186.476 822.006)" font-weight="400" font-size="10" font-family="Arial"><tspan y="0" x="0 3.901242 10.239207 16.576895 19.355354 25.273258 30.27326 33.051716 42.792953 49.14061 54.140614 63.881851 70.034218 76.381874 79.160057 85.288124 91.625816 94.804459 97.983376 104.3457">(univ_imp_median, 0)</tspan></text><path d="M1356.76 703.395v4.666"/><path d="M1356.76 703.395v4.666" fill="none" stroke="#000" stroke-width="1.06664" stroke-linejoin="round" stroke-miterlimit="10"/><text style="-inkscape-font-specification:Arial" transform="matrix(.9428 -.9428 .9428 .9428 1252.413 822.006)" font-weight="400" font-size="10" font-family="Arial"><tspan y="0" x="0 3.901242 10.239207 16.577171 19.355354 25.273535 30.273535 33.051716 42.793228 49.14061 54.140614 63.882126 70.034492 76.381874 79.160057 85.288124 91.626091 94.804733 97.983376 104.3457">(univ_imp_median, 1)</tspan></text><path d="M1422.693 703.395v4.666"/><path d="M1422.693 703.395v4.666" fill="none" stroke="#000" stroke-width="1.06664" stroke-linejoin="round" stroke-miterlimit="10"/><text style="-inkscape-font-specification:Arial" transform="matrix(.9428 -.9428 .9428 .9428 1353.707 786.65)" font-weight="400" font-size="10" font-family="Arial"><tspan y="0" x="0 3.9012442 12.0799 14.85808 18.7792 25.116888 30.116888 36.454578 42.582649 48.920616 54.130615 57.309258 60.4879 66.850227">(with_nans, 0)</tspan></text><path d="M1488.627 703.395v4.666"/><path d="M1488.627 703.395v4.666" fill="none" stroke="#000" stroke-width="1.06664" stroke-linejoin="round" stroke-miterlimit="10"/><g font-weight="400" font-size="10" font-family="Arial"><text style="-inkscape-font-specification:Arial" transform="matrix(.9428 -.9428 .9428 .9428 1419.64 786.65)"><tspan y="0" x="0 3.9012442 12.0799 14.85808 18.7792 25.116888 30.116888 36.454578 42.582649 48.920616 54.130615 57.309258 60.4879 66.850227">(with_nans, 1)</tspan></text><text style="-inkscape-font-specification:Arial" transform="matrix(1.33333 0 0 1.33333 705.067 846.465)"><tspan y="0" x="0 3.9015625 11.601562 17.729708 21.650391 27.778536 32.988537 39.140881 43.061954 46.24049 49.419415 58.047169 64.175316 68.286629 73.70266 79.820602 85.738556 88.91748 95.255379 101.59328 105.11328 111.23162 114.00977 120.35742 126.50977 132.85742">[Dataset, Markov unfolded]</tspan></text></g><path d="M70.972 611.627h-4.667"/><path d="M70.972 611.627h-4.667" fill="none" stroke="#000" stroke-width="1.06664" stroke-linejoin="round" stroke-miterlimit="10"/><text style="-inkscape-font-specification:Arial" transform="matrix(1.33333 0 0 1.33333 53.16 616.688)" font-weight="400" font-size="10" font-family="Arial"><tspan y="0" x="0">6</tspan></text><path d="M70.972 509.537h-4.667"/><path d="M70.972 509.537h-4.667" fill="none" stroke="#000" stroke-width="1.06664" stroke-linejoin="round" stroke-miterlimit="10"/><text style="-inkscape-font-specification:Arial" transform="matrix(1.33333 0 0 1.33333 53.16 514.6)" font-weight="400" font-size="10" font-family="Arial"><tspan y="0" x="0">7</tspan></text><path d="M70.972 407.45h-4.667"/><path d="M70.972 407.45h-4.667" fill="none" stroke="#000" stroke-width="1.06664" stroke-linejoin="round" stroke-miterlimit="10"/><text style="-inkscape-font-specification:Arial" transform="matrix(1.33333 0 0 1.33333 53.16 412.512)" font-weight="400" font-size="10" font-family="Arial"><tspan y="0" x="0">8</tspan></text><path d="M70.972 305.361h-4.667"/><path d="M70.972 305.361h-4.667" fill="none" stroke="#000" stroke-width="1.06664" stroke-linejoin="round" stroke-miterlimit="10"/><text style="-inkscape-font-specification:Arial" transform="matrix(1.33333 0 0 1.33333 53.16 310.424)" font-weight="400" font-size="10" font-family="Arial"><tspan y="0" x="0">9</tspan></text><path d="M70.972 203.273h-4.667"/><path d="M70.972 203.273h-4.667" fill="none" stroke="#000" stroke-width="1.06664" stroke-linejoin="round" stroke-miterlimit="10"/><text style="-inkscape-font-specification:Arial" transform="matrix(1.33333 0 0 1.33333 44.68 208.336)" font-weight="400" font-size="10" font-family="Arial"><tspan y="0" x="0 6.3624992">10</tspan></text><path d="M70.972 101.185h-4.667"/><path d="M70.972 101.185h-4.667" fill="none" stroke="#000" stroke-width="1.06664" stroke-linejoin="round" stroke-miterlimit="10"/><g font-weight="400" font-size="10" font-family="Arial"><text style="-inkscape-font-specification:Arial" transform="matrix(1.33333 0 0 1.33333 44.68 106.248)"><tspan y="0" x="0 6.3624992">11</tspan></text><text style="-inkscape-font-specification:Arial" transform="matrix(0 -1.33333 1.33333 0 36.576 388.387)"><tspan y="0" x="0 6.9480467 15.576167 21.923822">RMSE</tspan></text></g><g clip-path="url(#a)" fill="none" stroke-width="10" stroke-linejoin="round" stroke-miterlimit="10" transform="matrix(.13333 0 0 -.13333 0 864)"><path d="M655.922 3320.65h247.266v295.72H655.922v-295.72M779.555 3320.65v-419.29M779.555 3616.37v131.26" stroke="gray" stroke-linecap="square"/><path d="M717.738 2901.36h123.633M717.738 3747.63h123.633M1150.46 2582h247.26v783.38h-247.26V2582M1274.09 2582v-706.32M1274.09 3365.38v253.36M1212.27 1875.68h123.64M1212.27 3618.74h123.64" stroke="#000" stroke-linecap="square"/><path d="M1644.99 3434.48h247.26v606.66h-247.26v-606.66M1768.62 3434.48v-717.39M1768.62 4041.14v213.65" stroke="gray" stroke-linecap="square"/><path d="M1706.8 2717.09h123.64M1706.8 4254.79h123.64M2139.52 2775.34h247.27v408.39h-247.27v-408.39M2263.15 2775.34v-506.42M2263.15 3183.73v237.86M2201.34 2268.92h123.63M2201.34 3421.59h123.63" stroke="#000" stroke-linecap="square"/><path d="M2634.05 2668.95h247.27v1017h-247.27v-1017M2757.68 2668.95v-859.74M2757.68 3685.95v259.72" stroke="gray" stroke-linecap="square"/><path d="M2695.87 1809.21h123.63M2695.87 3945.67h123.63M3128.59 2177.26h247.26v780.98h-247.26v-780.98M3252.22 2177.26v-293.32M3252.22 2958.24v491.13M3190.4 1883.94h123.64M3190.4 3449.37h123.64" stroke="#000" stroke-linecap="square"/><path d="M3623.12 2848.56h247.26v641.51h-247.26v-641.51M3746.75 2848.56v-472.52M3746.75 3490.07v794.91" stroke="gray" stroke-linecap="square"/><path d="M3684.93 2376.04h123.64M3684.93 4284.98h123.64M4117.65 2119.31h247.26v1311.46h-247.26V2119.31M4241.28 2119.31v-687.16M4241.28 3430.77v266.33M4179.46 1432.15h123.64M4179.46 3697.1h123.64" stroke="#000" stroke-linecap="square"/><path d="M4612.18 3173.74h247.27v499.74h-247.27v-499.74M4735.82 3173.74V2947.1M4735.82 3673.48v376.73" stroke="gray" stroke-linecap="square"/><path d="M4674 2947.1h123.63M4674 4050.21h123.63M5106.71 2744.15h247.27v530.4h-247.27v-530.4M5230.35 2744.15v-323.94M5230.35 3274.55v317.5M5168.53 2420.21h123.63M5168.53 3592.05h123.63" stroke="#000" stroke-linecap="square"/><path d="M5601.25 3684.9h247.26v839.29h-247.26V3684.9M5724.88 3684.9V2439.55M5724.88 4524.19v580.57" stroke="gray" stroke-linecap="square"/><path d="M5663.06 2439.55h123.64M5663.06 5104.76h123.64" stroke="#000" stroke-linecap="square"/><path d="M5724.88 2105.57c7.96 0 15.59 3.16 21.21 8.79a29.963 29.963 0 018.79 21.21 29.995 29.995 0 01-30 30c-7.95 0-15.59-3.16-21.21-8.78a30.003 30.003 0 01-8.79-21.22c0-7.96 3.16-15.59 8.79-21.21a29.98 29.98 0 0121.21-8.79zM5724.88 2037.86c7.96 0 15.59 3.16 21.21 8.79a29.963 29.963 0 018.79 21.21c0 7.96-3.16 15.59-8.79 21.21a29.963 29.963 0 01-21.21 8.79 29.98 29.98 0 01-21.21-8.79 29.963 29.963 0 01-8.79-21.21c0-7.96 3.16-15.59 8.79-21.21a29.98 29.98 0 0121.21-8.79zM5724.88 2308.1c7.96 0 15.59 3.16 21.21 8.79a29.963 29.963 0 018.79 21.21c0 7.95-3.16 15.59-8.79 21.21a29.963 29.963 0 01-21.21 8.79 29.98 29.98 0 01-21.21-8.79 29.98 29.98 0 01-8.79-21.21c0-7.96 3.16-15.59 8.79-21.21a29.98 29.98 0 0121.21-8.79zM5724.88 2215.22c7.96 0 15.59 3.16 21.21 8.79a29.98 29.98 0 018.79 21.21c0 7.96-3.16 15.59-8.79 21.21a29.963 29.963 0 01-21.21 8.79 29.98 29.98 0 01-21.21-8.79 29.963 29.963 0 01-8.79-21.21c0-7.95 3.16-15.59 8.79-21.21a29.98 29.98 0 0121.21-8.79z" stroke="#000"/><path d="M5724.88 2210.08c7.96 0 15.59 3.16 21.21 8.79a29.98 29.98 0 018.79 21.21c0 7.96-3.16 15.59-8.79 21.21a29.963 29.963 0 01-21.21 8.79 29.98 29.98 0 01-21.21-8.79 29.963 29.963 0 01-8.79-21.21c0-7.95 3.16-15.59 8.79-21.21a29.98 29.98 0 0121.21-8.79z" stroke="#000"/><path d="M5724.88 2210.08c7.96 0 15.59 3.16 21.21 8.79a29.98 29.98 0 018.79 21.21c0 7.96-3.16 15.59-8.79 21.21a29.963 29.963 0 01-21.21 8.79 29.98 29.98 0 01-21.21-8.79 29.963 29.963 0 01-8.79-21.21c0-7.95 3.16-15.59 8.79-21.21a29.98 29.98 0 0121.21-8.79z" stroke="#000"/><path d="M5724.88 2262.74c7.96 0 15.59 3.16 21.21 8.79a29.98 29.98 0 018.79 21.21c0 7.96-3.16 15.59-8.79 21.21a29.963 29.963 0 01-21.21 8.79 29.98 29.98 0 01-21.21-8.79 29.963 29.963 0 01-8.79-21.21c0-7.95 3.16-15.59 8.79-21.21a29.98 29.98 0 0121.21-8.79z" stroke="#000"/><path d="M5724.88 2264.71c7.96 0 15.59 3.16 21.21 8.79a29.963 29.963 0 018.79 21.21c0 7.96-3.16 15.59-8.79 21.21a29.963 29.963 0 01-21.21 8.79 29.98 29.98 0 01-21.21-8.79 29.963 29.963 0 01-8.79-21.21c0-7.96 3.16-15.59 8.79-21.21a29.98 29.98 0 0121.21-8.79zM5724.88 2184.24c7.96 0 15.59 3.16 21.21 8.79a29.98 29.98 0 018.79 21.21c0 7.96-3.16 15.59-8.79 21.21a29.963 29.963 0 01-21.21 8.79 29.98 29.98 0 01-21.21-8.79 29.963 29.963 0 01-8.79-21.21c0-7.95 3.16-15.59 8.79-21.21a29.98 29.98 0 0121.21-8.79z" stroke="#000"/><path d="M5724.88 2184.24c7.96 0 15.59 3.16 21.21 8.79a29.98 29.98 0 018.79 21.21c0 7.96-3.16 15.59-8.79 21.21a29.963 29.963 0 01-21.21 8.79 29.98 29.98 0 01-21.21-8.79 29.963 29.963 0 01-8.79-21.21c0-7.95 3.16-15.59 8.79-21.21a29.98 29.98 0 0121.21-8.79z" stroke="#000"/><path d="M6095.78 3955.82h247.26v622.07h-247.26v-622.07M6219.41 3955.82v-924.44M6219.41 4577.89v561.26M6157.59 3031.38h123.64M6157.59 5139.15h123.64" stroke="#000" stroke-linecap="square"/><path d="M6219.41 2966.22c7.96 0 15.59 3.16 21.22 8.79a30.012 30.012 0 010 42.42 30.003 30.003 0 01-21.22 8.79c-7.96 0-15.59-3.16-21.21-8.79a29.963 29.963 0 01-8.79-21.21c0-7.95 3.16-15.59 8.79-21.21a29.963 29.963 0 0121.21-8.79z" stroke="#000"/><path d="M6219.41 2966.22c7.96 0 15.59 3.16 21.22 8.79a30.012 30.012 0 010 42.42 30.003 30.003 0 01-21.22 8.79c-7.96 0-15.59-3.16-21.21-8.79a29.963 29.963 0 01-8.79-21.21c0-7.95 3.16-15.59 8.79-21.21a29.963 29.963 0 0121.21-8.79z" stroke="#000"/><path d="M6590.31 3114.97h247.27v602.01h-247.27v-602.01M6713.95 3114.97v-223.09M6713.95 3716.98v338.43" stroke="gray" stroke-linecap="square"/><path d="M6652.13 2891.88h123.63M6652.13 4055.41h123.63M7084.84 2602.2h247.27v821.6h-247.27v-821.6M7208.48 2602.2v-791.68M7208.48 3423.8V3793M7146.66 1810.52h123.63M7146.66 3793h123.63" stroke="#000" stroke-linecap="square"/><path d="M7579.38 3194.08h247.26v464.86h-247.26v-464.86M7703.01 3194.08V2679.2M7703.01 3658.94v270.83" stroke="gray" stroke-linecap="square"/><path d="M7641.19 2679.2h123.63M7641.19 3929.77h123.63M8073.91 2882.86h247.26v720.76h-247.26v-720.76M8197.54 2882.86v-457.82M8197.54 3603.62v461.74M8135.72 2425.04h123.64M8135.72 4065.36h123.64" stroke="#000" stroke-linecap="square"/><path d="M8568.44 2703.71h247.27v576.08h-247.27v-576.08M8692.07 2703.71v-607.32M8692.07 3279.79v812.87" stroke="gray" stroke-linecap="square"/><path d="M8630.26 2096.39h123.63M8630.26 4092.66h123.63M9062.97 2472.59h247.27V3484.7h-247.27V2472.59M9186.61 2472.59v-603.37M9186.61 3484.7v232.41M9124.79 1869.22h123.63M9124.79 3717.11h123.63" stroke="#000" stroke-linecap="square"/><path d="M9557.5 3058.58h247.27v540.21H9557.5v-540.21M9681.14 3058.58v-454.2M9681.14 3598.79v586.07" stroke="gray" stroke-linecap="square"/><path d="M9619.32 2604.38h123.63M9619.32 4184.86h123.63M10052 2240.18h247.3v828.46H10052v-828.46M10175.7 2240.18v-718.52M10175.7 3068.64v278.55M10113.9 1521.66h123.6M10113.9 3347.19h123.6" stroke="#000" stroke-linecap="square"/><path d="M10546.6 4050.51h247.2v614.99h-247.2v-614.99M10670.2 4050.51v-667.22M10670.2 4665.5v904.06" stroke="gray" stroke-linecap="square"/><path d="M10608.4 3383.29h123.6M10608.4 5569.56h123.6" stroke="#000" stroke-linecap="square"/><path d="M10670.2 5569.03c8 0 15.6 3.16 21.2 8.79 5.6 5.62 8.8 13.25 8.8 21.21 0 7.96-3.2 15.59-8.8 21.21-5.6 5.63-13.2 8.79-21.2 8.79s-15.6-3.16-21.2-8.79c-5.6-5.62-8.8-13.25-8.8-21.21 0-7.96 3.2-15.59 8.8-21.21 5.6-5.63 13.2-8.79 21.2-8.79z" stroke="#000"/><path d="M10670.2 5561.4c8 0 15.6 3.16 21.2 8.79 5.6 5.62 8.8 13.26 8.8 21.21 0 7.96-3.2 15.59-8.8 21.21-5.6 5.63-13.2 8.79-21.2 8.79s-15.6-3.16-21.2-8.79c-5.6-5.62-8.8-13.25-8.8-21.21 0-7.95 3.2-15.59 8.8-21.21 5.6-5.63 13.2-8.79 21.2-8.79z" stroke="#000"/><path d="M11041.1 4308.02h247.3v777.31h-247.3v-777.31M11164.7 4308.02v-909.16M11164.7 5085.33v899.06M11102.9 3398.86h123.7M11102.9 5984.39h123.7" stroke="#000" stroke-linecap="square"/><path d="M655.922 3475.49h247.266" stroke="gray" stroke-linecap="square"/><path d="M1150.46 3144.07h247.26" stroke="#000" stroke-linecap="square"/><path d="M1644.99 3793.25h247.26" stroke="gray" stroke-linecap="square"/><path d="M2139.52 3090.39h247.27" stroke="#000" stroke-linecap="square"/><path d="M2634.05 3464.31h247.27" stroke="gray" stroke-linecap="square"/><path d="M3128.59 2468.48h247.26" stroke="#000" stroke-linecap="square"/><path d="M3623.12 3289.02h247.26" stroke="gray" stroke-linecap="square"/><path d="M4117.65 3097.6h247.26" stroke="#000" stroke-linecap="square"/><path d="M4612.18 3433.01h247.27" stroke="gray" stroke-linecap="square"/><path d="M5106.71 3099.29h247.27" stroke="#000" stroke-linecap="square"/><path d="M5601.25 4064.32h247.26" stroke="gray" stroke-linecap="square"/><path d="M6095.78 4236.79h247.26" stroke="#000" stroke-linecap="square"/><path d="M6590.31 3361.14h247.27" stroke="gray" stroke-linecap="square"/><path d="M7084.84 3070.66h247.27" stroke="#000" stroke-linecap="square"/><path d="M7579.38 3352.62h247.26" stroke="gray" stroke-linecap="square"/><path d="M8073.91 3359.06h247.26" stroke="#000" stroke-linecap="square"/><path d="M8568.44 2956.14h247.27" stroke="gray" stroke-linecap="square"/><path d="M9062.97 2951.47h247.27" stroke="#000" stroke-linecap="square"/><path d="M9557.5 3479.29h247.27" stroke="gray" stroke-linecap="square"/><path d="M10052 2461.1h247.3" stroke="#000" stroke-linecap="square"/><path d="M10546.6 4486.2h247.2" stroke="gray" stroke-linecap="square"/><path d="M11041.1 4694.81h247.3" stroke="#000" stroke-linecap="square"/></g><path d="M70.972 703.395V35.733M1521.6 703.395V35.733M70.972 703.395H1521.6M70.972 35.733H1521.6" fill="none" stroke="#000" stroke-width="1.06664" stroke-linecap="square" stroke-miterlimit="10"/><text style="-inkscape-font-specification:Arial" transform="matrix(1.33333 0 0 1.33333 513.973 27.733)" font-weight="400" font-size="12" font-family="Arial"><tspan y="0" x="0 6.6855383 14.039048 20.291048 26.543047 33.88485 37.699287 45.316456 52.699287 57.6329 61.857487 69.199287 73.882896 85.572365 92.925873 100.53133 107.12899 114.51183 118.32626 125.94343 133.32626 138.03134 147.84578 155.22861 162.61143 170.2169 174.03134 181.66612 189.3009 193.11534 200.46884 208.07431 215.69148 219.50592 227.1407 234.77548 242.41026 246.2247 253.84187 261.2247 267.47672 272.18176 275.99622 280.22079 287.60364 294.95715 299.6622 307.26767 311.95129 319.33411 325.58612 329.40054 336.75406 343.35172 348.03534 355.37701 361.629 367.88101 371.69543 379.31259 386.66611 391.37119 398.7247 404.97668 412.35953 417.06461">Lasso performance between 20 and 150 best features across datasets</tspan></text></svg>